<svg xmlns="http://www.w3.org/2000/svg" viewBox="0 0 640 640" role="img" aria-label="Ilustração de um controlador de grupo gerador">
  <defs>
    <linearGradient id="g" x1="0" y1="0" x2="1" y2="1"><stop offset="0" stop-color="#12305f"/><stop offset="1" stop-color="#06162e"/></linearGradient>
  </defs>
  <rect x="120" y="170" width="400" height="300" rx="18" fill="url(#g)" stroke="#2a6fd6" stroke-opacity=".5"/>
  <rect x="150" y="200" width="200" height="120" rx="8" fill="#0f2f4a" stroke="#39c0f0" stroke-opacity=".6"/>
  <g fill="#39c0f0">
    <rect x="166" y="218" width="120" height="8" rx="2"/>
    <rect x="166" y="238" width="96" height="8" rx="2" opacity=".8"/>
    <rect x="166" y="258" width="140" height="8" rx="2" opacity=".6"/>
    <rect x="166" y="278" width="80" height="8" rx="2" opacity=".5"/>
  </g>
  <g fill="#3a4252" stroke="#5b93e6" stroke-opacity=".4">
    <rect x="380" y="205" width="36" height="26" rx="6"/><rect x="424" y="205" width="36" height="26" rx="6"/><rect x="468" y="205" width="36" height="26" rx="6"/>
    <rect x="380" y="243" width="36" height="26" rx="6"/><rect x="424" y="243" width="36" height="26" rx="6"/><rect x="468" y="243" width="36" height="26" rx="6"/>
    <rect x="380" y="281" width="36" height="26" rx="6"/><rect x="424" y="281" width="36" height="26" rx="6"/><rect x="468" y="281" width="36" height="26" rx="6" fill="#2a6fd6"/>
  </g>
  <circle cx="170" cy="350" r="6" fill="#22c55e"/><circle cx="194" cy="350" r="6" fill="#f59e0b"/><circle cx="218" cy="350" r="6" fill="#ef4444"/>
  <g fill="#2f9e6a">
    <rect x="140" y="430" width="28" height="30" rx="3"/><rect x="176" y="430" width="28" height="30" rx="3"/><rect x="212" y="430" width="28" height="30" rx="3"/><rect x="248" y="430" width="28" height="30" rx="3"/><rect x="284" y="430" width="28" height="30" rx="3"/>
    <rect x="320" y="430" width="28" height="30" rx="3"/><rect x="356" y="430" width="28" height="30" rx="3"/><rect x="392" y="430" width="28" height="30" rx="3"/><rect x="428" y="430" width="28" height="30" rx="3"/><rect x="464" y="430" width="28" height="30" rx="3"/>
  </g>
</svg>
